<svg xmlns="http://www.w3.org/2000/svg" viewBox="0 0 640 200">
  <defs>
    <linearGradient id="g1" x1="0" x2="1">
      <stop offset="0%" stop-color="#0b6ecb"/><stop offset="100%" stop-color="#1696ff"/>
    </linearGradient>
  </defs>
  <g transform="translate(18,14)">
    <path d="M84 8c35 0 64 29 64 64 0 48-46 78-64 108C66 150 20 120 20 72 20 37 49 8 84 8z" fill="url(#g1)" opacity="0.96"/>
    <path d="M84 24c26 0 48 22 48 48 0 26-22 48-48 48S36 98 36 72c0-26 22-48 48-48z" fill="#ffffff"/>
    <path d="M84 24c13 0 24 22 24 48s-11 48-24 48z" fill="#ff6a2c"/>
    <path d="M84 24v96" stroke="#0b6ecb" stroke-width="4"/>
    <g stroke="#0b6ecb" stroke-width="4" stroke-linecap="round">
      <path d="M53 72h18"/><path d="M60 56l11 11"/><path d="M60 88l11-11"/>
      <path d="M46 72l10-10"/><path d="M46 72l10 10"/>
    </g>
    <g stroke="#ffffff" stroke-width="4" stroke-linecap="round">
      <path d="M97 72h18"/><path d="M95 56l12 12"/><path d="M95 88l12-12"/>
      <path d="M112 48v18"/><path d="M112 96V78"/>
    </g>
  </g>
  <text x="178" y="104" font-size="86" font-family="Arial, Helvetica, sans-serif" fill="#0b6ecb" font-weight="700">iCOOL</text>
  <text x="182" y="150" font-size="40" font-family="Arial, Helvetica, sans-serif" fill="#1171c8" letter-spacing="2">COOL YOUR LIFE</text>
</svg>